<svg xmlns="http://www.w3.org/2000/svg" width="44.539" height="24.649" viewBox="0 0 44.539 24.649">
  <g id="Group_12216" data-name="Group 12216" transform="translate(-20.556 -411.221)">
    <g id="check-all" transform="translate(25.317 402.353)">
      <path id="Path_3556" data-name="Path 3556" d="M20.183,11.182a1.688,1.688,0,1,1,2.41,2.363L13.611,24.773a1.688,1.688,0,0,1-2.43.045L5.229,18.864a1.688,1.688,0,1,1,2.385-2.385l4.712,4.709,7.811-9.956a.567.567,0,0,1,.045-.049Zm-2.07,11.565,2.07,2.07a1.688,1.688,0,0,0,2.428-.045l8.982-11.228a1.688,1.688,0,1,0-2.455-2.313l-7.815,9.957-1.091-1.093L18.11,22.748Z" fill="#23b52e" fill-rule="evenodd"/>
    </g>
    <g id="Group_964" data-name="Group 964" transform="translate(-8887.994 -3089)">
      <path id="Path_3543" data-name="Path 3543" d="M35.576,91.771h1.053V93.74H35.576Z" transform="translate(8877.419 3408.45)" fill="#23b52e"/>
      <path id="Path_3544" data-name="Path 3544" d="M58.125,127.326h1.969v1.053H58.125Z" transform="translate(8856.456 3375.395)" fill="#23b52e"/>
      <path id="Path_3545" data-name="Path 3545" d="M35.576,150.229h1.053V152.2H35.576Z" transform="translate(8877.419 3354.103)" fill="#23b52e"/>
      <path id="Path_3546" data-name="Path 3546" d="M0,127.326H1.969v1.053H0Z" transform="translate(8910.494 3375.395)" fill="#23b52e"/>
      <path id="Path_3547" data-name="Path 3547" d="M453.826,286.708h1.053v1.969h-1.053Z" transform="translate(8495.709 3227.219)" fill="#23b52e"/>
      <path id="Path_3548" data-name="Path 3548" d="M476.375,322.264h1.969v1.053h-1.969Z" transform="translate(8474.745 3194.163)" fill="#23b52e"/>
      <path id="Path_3549" data-name="Path 3549" d="M453.826,345.167h1.053v1.969h-1.053Z" transform="translate(8495.709 3172.87)" fill="#23b52e"/>
      <path id="Path_3550" data-name="Path 3550" d="M418.25,322.264h1.969v1.053H418.25Z" transform="translate(8528.784 3194.163)" fill="#23b52e"/>
      <path id="Path_3551" data-name="Path 3551" d="M86.125,232.451H87.18V233.5H86.125Z" transform="translate(8822.425 3277.661)" fill="#23b52e"/>
      <path id="Path_3552" data-name="Path 3552" d="M431.25,172.451H432.3V173.5H431.25Z" transform="translate(8516.698 3333.443)" fill="#23b52e"/>
      <path id="Path_3553" data-name="Path 3553" d="M29,337.389h1.055v1.053H29Z" transform="translate(8883.533 3180.101)" fill="#23b52e"/>
      <path id="Path_3554" data-name="Path 3554" d="M438.75,427.389H439.8v1.053H438.75Z" transform="translate(8509.726 3096.429)" fill="#23b52e"/>
    </g>
  </g>
</svg>
