<svg xmlns="http://www.w3.org/2000/svg" width="44.539" height="27.841" viewBox="0 0 44.539 27.841">
  <g id="Group_12217" data-name="Group 12217" transform="translate(-20.556 -408.03)">
    <g id="Group_964" data-name="Group 964" transform="translate(-8887.994 -3089)">
      <path id="Path_3543" data-name="Path 3543" d="M35.576,91.771h1.053V93.74H35.576Z" transform="translate(8877.419 3408.45)" fill="#ff1d51"/>
      <path id="Path_3544" data-name="Path 3544" d="M58.125,127.326h1.969v1.053H58.125Z" transform="translate(8856.456 3375.395)" fill="#ff1d51"/>
      <path id="Path_3545" data-name="Path 3545" d="M35.576,150.229h1.053V152.2H35.576Z" transform="translate(8877.419 3354.103)" fill="#ff1d51"/>
      <path id="Path_3546" data-name="Path 3546" d="M0,127.326H1.969v1.053H0Z" transform="translate(8910.494 3375.395)" fill="#ff1d51"/>
      <path id="Path_3547" data-name="Path 3547" d="M453.826,286.708h1.053v1.969h-1.053Z" transform="translate(8495.709 3227.219)" fill="#ff1d51"/>
      <path id="Path_3548" data-name="Path 3548" d="M476.375,322.264h1.969v1.053h-1.969Z" transform="translate(8474.745 3194.163)" fill="#ff1d51"/>
      <path id="Path_3549" data-name="Path 3549" d="M453.826,345.167h1.053v1.969h-1.053Z" transform="translate(8495.709 3172.87)" fill="#ff1d51"/>
      <path id="Path_3550" data-name="Path 3550" d="M418.25,322.264h1.969v1.053H418.25Z" transform="translate(8528.784 3194.163)" fill="#ff1d51"/>
      <path id="Path_3551" data-name="Path 3551" d="M86.125,232.451H87.18V233.5H86.125Z" transform="translate(8822.425 3277.661)" fill="#ff1d51"/>
      <path id="Path_3552" data-name="Path 3552" d="M431.25,172.451H432.3V173.5H431.25Z" transform="translate(8516.698 3333.443)" fill="#ff1d51"/>
      <path id="Path_3553" data-name="Path 3553" d="M29,337.389h1.055v1.053H29Z" transform="translate(8883.533 3180.101)" fill="#ff1d51"/>
      <path id="Path_3554" data-name="Path 3554" d="M438.75,427.389H439.8v1.053H438.75Z" transform="translate(8509.726 3096.429)" fill="#ff1d51"/>
    </g>
    <g id="smile-sad" transform="translate(28.03 405.03)">
      <path id="Path_8044" data-name="Path 8044" d="M13.2,15.9A1.2,1.2,0,1,0,12,14.7,1.2,1.2,0,0,0,13.2,15.9Z" transform="translate(-1.809 -2.11)" fill="#ff1d51"/>
      <path id="Path_8045" data-name="Path 8045" d="M19.191,24.294a2.4,2.4,0,0,0-4.794,0H12a4.794,4.794,0,0,1,9.588,0Z" transform="translate(-1.809 -3.316)" fill="#ff1d51"/>
      <path id="Path_8046" data-name="Path 8046" d="M23.4,14.7a1.2,1.2,0,1,1-1.2-1.2A1.2,1.2,0,0,1,23.4,14.7Z" transform="translate(-3.618 -2.11)" fill="#ff1d51"/>
      <path id="Path_8047" data-name="Path 8047" d="M26.97,14.985A11.985,11.985,0,1,1,14.985,3,11.985,11.985,0,0,1,26.97,14.985Zm-2.4,0A9.588,9.588,0,1,1,14.985,5.4a9.588,9.588,0,0,1,9.588,9.588Z" fill="#ff1d51" fill-rule="evenodd"/>
    </g>
  </g>
</svg>
