<svg xmlns="http://www.w3.org/2000/svg" width="44.539" height="25.992" viewBox="0 0 44.539 25.992">
  <g id="Group_12298" data-name="Group 12298" transform="translate(-20.556 -631.879)">
    <path id="bxs-error-alt" d="M18.532,3.31A1.052,1.052,0,0,0,17.785,3H9.336a1.052,1.052,0,0,0-.746.31L3.31,8.59A1.052,1.052,0,0,0,3,9.336v8.448a1.05,1.05,0,0,0,.31.746l5.28,5.28a1.052,1.052,0,0,0,.746.31h8.448a1.05,1.05,0,0,0,.746-.31l5.28-5.28a1.052,1.052,0,0,0,.31-.746V9.336a1.052,1.052,0,0,0-.31-.746l-5.28-5.28ZM14.617,18.841H12.5V16.729h2.112Zm0-4.224H12.5V8.28h2.112Z" transform="translate(30 628.879)" fill="#ff1d51"/>
    <g id="Group_967" data-name="Group 967" transform="translate(-8887.994 -2867)">
      <path id="Path_3543" data-name="Path 3543" d="M35.576,91.771h1.053V93.74H35.576Z" transform="translate(8877.419 3408.45)" fill="#ff1d51"/>
      <path id="Path_3544" data-name="Path 3544" d="M58.125,127.326h1.969v1.053H58.125Z" transform="translate(8856.456 3375.395)" fill="#ff1d51"/>
      <path id="Path_3545" data-name="Path 3545" d="M35.576,150.229h1.053V152.2H35.576Z" transform="translate(8877.419 3354.103)" fill="#ff1d51"/>
      <path id="Path_3546" data-name="Path 3546" d="M0,127.326H1.969v1.053H0Z" transform="translate(8910.494 3375.395)" fill="#ff1d51"/>
      <path id="Path_3547" data-name="Path 3547" d="M453.826,286.708h1.053v1.969h-1.053Z" transform="translate(8495.709 3227.219)" fill="#ff1d51"/>
      <path id="Path_3548" data-name="Path 3548" d="M476.375,322.264h1.969v1.053h-1.969Z" transform="translate(8474.745 3194.163)" fill="#ff1d51"/>
      <path id="Path_3549" data-name="Path 3549" d="M453.826,345.167h1.053v1.969h-1.053Z" transform="translate(8495.709 3172.87)" fill="#ff1d51"/>
      <path id="Path_3550" data-name="Path 3550" d="M418.25,322.264h1.969v1.053H418.25Z" transform="translate(8528.784 3194.163)" fill="#ff1d51"/>
      <path id="Path_3551" data-name="Path 3551" d="M86.125,232.451H87.18V233.5H86.125Z" transform="translate(8822.425 3277.661)" fill="#ff1d51"/>
      <path id="Path_3552" data-name="Path 3552" d="M431.25,172.451H432.3V173.5H431.25Z" transform="translate(8516.698 3333.443)" fill="#ff1d51"/>
      <path id="Path_3553" data-name="Path 3553" d="M29,337.389h1.055v1.053H29Z" transform="translate(8883.533 3180.101)" fill="#ff1d51"/>
      <path id="Path_3554" data-name="Path 3554" d="M438.75,427.389H439.8v1.053H438.75Z" transform="translate(8509.726 3096.429)" fill="#ff1d51"/>
    </g>
  </g>
</svg>
